HIERARCHY
ROOT hip
{
	OFFSET 0.000000 0.000000 0.000000
	CHANNELS 6 Xposition Yposition Zposition Zrotation Yrotation Xrotation 
	JOINT lhipjoint
	{
		OFFSET 0.000000 0.000000 0.000000
		CHANNELS 3 Zrotation Yrotation Xrotation
		JOINT lfemur
		{
			OFFSET 1.363060 -1.794630 0.839290
			CHANNELS 3 Zrotation Yrotation Xrotation
			JOINT ltibia
			{
				OFFSET 2.448110 -6.726130 0.000000
				CHANNELS 3 Zrotation Yrotation Xrotation
				JOINT lfoot
				{
					OFFSET 2.562200 -7.039590 0.000000
					CHANNELS 3 Zrotation Yrotation Xrotation
					JOINT ltoes
					{
						OFFSET 0.157640 -0.433110 2.322550
						CHANNELS 3 Zrotation Yrotation Xrotation
						End Site
						{
							OFFSET 0.000000 0.000000 0.000000
						}
					}
				}
			}
		}
	}
	JOINT rhipjoint
	{
		OFFSET 0.000000 0.000000 0.000000
		CHANNELS 3 Zrotation Yrotation Xrotation
		JOINT rfemur
		{
			OFFSET -1.305520 -1.794630 0.839290
			CHANNELS 3 Zrotation Yrotation Xrotation
			JOINT rtibia
			{
				OFFSET -2.542530 -6.985550 0.000000
				CHANNELS 3 Zrotation Yrotation Xrotation
				JOINT rfoot
				{
					OFFSET -2.568260 -7.056230 0.000000
					CHANNELS 3 Zrotation Yrotation Xrotation
					JOINT rtoes
					{
						OFFSET -0.164730 -0.452590 2.363150
						CHANNELS 3 Zrotation Yrotation Xrotation
						End Site
						{
							OFFSET 0.000000 0.000000 0.000000
						}
					}
				}
			}
		}
	}
	JOINT lowerback
	{
		OFFSET 0.000000 0.000000 0.000000
		CHANNELS 3 Zrotation Yrotation Xrotation
		JOINT upperback
		{
			OFFSET 0.028270 2.035590 -0.193380
			CHANNELS 3 Zrotation Yrotation Xrotation
			JOINT thorax
			{
				OFFSET 0.056720 2.048850 -0.042750
				CHANNELS 3 Zrotation Yrotation Xrotation
				JOINT lowerneck
				{
					OFFSET 0.000000 0.000000 0.000000
					CHANNELS 3 Zrotation Yrotation Xrotation
					JOINT upperneck
					{
						OFFSET -0.054170 1.746240 0.172020
						CHANNELS 3 Zrotation Yrotation Xrotation
						JOINT head
						{
							OFFSET 0.104070 1.761360 -0.123970
							CHANNELS 3 Zrotation Yrotation Xrotation
							End Site
							{
								OFFSET 0.000000 0.000000 0.000000
							}
						}
					}
				}
				JOINT lclavicle
				{
					OFFSET 0.000000 0.000000 0.000000
					CHANNELS 3 Zrotation Yrotation Xrotation
					JOINT lhumerus
					{
						OFFSET 3.362410 1.200890 -0.311210
						CHANNELS 3 Zrotation Yrotation Xrotation
						JOINT lradius
						{
							OFFSET 4.983000 -0.000000 -0.000000
							CHANNELS 3 Zrotation Yrotation Xrotation
							JOINT lwrist
							{
								OFFSET 3.483560 -0.000000 -0.000000
								CHANNELS 3 Zrotation Yrotation Xrotation
								JOINT lhand
								{
									OFFSET 0.000000 0.000000 0.000000
									CHANNELS 3 Zrotation Yrotation Xrotation
									JOINT lfingers
									{
										OFFSET 0.715260 -0.000000 -0.000000
										CHANNELS 3 Zrotation Yrotation Xrotation
										End Site
										{
											OFFSET 0.000000 0.000000 0.000000
										}
									}
								}
								JOINT lthumb
								{
									OFFSET 0.000000 0.000000 0.000000
									CHANNELS 3 Zrotation Yrotation Xrotation
									End Site
									{
										OFFSET 0.000000 0.000000 0.000000
									}
								}
							}
						}
					}
				}
				JOINT rclavicle
				{
					OFFSET 0.000000 0.000000 0.000000
					CHANNELS 3 Zrotation Yrotation Xrotation
					JOINT rhumerus
					{
						OFFSET -3.136600 1.374050 -0.404650
						CHANNELS 3 Zrotation Yrotation Xrotation
						JOINT rradius
						{
							OFFSET -5.241900 -0.000000 -0.000000
							CHANNELS 3 Zrotation Yrotation Xrotation
							JOINT rwrist
							{
								OFFSET -3.444170 -0.000000 -0.000000
								CHANNELS 3 Zrotation Yrotation Xrotation
								JOINT rhand
								{
									OFFSET 0.000000 0.000000 0.000000
									CHANNELS 3 Zrotation Yrotation Xrotation
									JOINT rfingers
									{
										OFFSET -0.622530 -0.000000 -0.000000
										CHANNELS 3 Zrotation Yrotation Xrotation
										End Site
										{
											OFFSET 0.000000 0.000000 0.000000
										}
									}
								}
								JOINT rthumb
								{
									OFFSET 0.000000 0.000000 0.000000
									CHANNELS 3 Zrotation Yrotation Xrotation
									End Site
									{
										OFFSET 0.000000 0.000000 0.000000
									}
								}
							}
						}
					}
				}
			}
		}
	}
}
MOTION
Frames: 12
Frame Time: 0.008333
-0.228945 17.206166 3.915152 -170.060490 0.718396 175.065131 6.802323 6.858288 2.620098 -16.338468 -0.328144 -11.096779 6.602175 13.496080 50.470888 1.764640 -0.447063 0.633983 1.753600 -8.332800 -23.729500 -9.107458 -7.110805 1.425124 38.165350 2.928663 -6.673774 -6.788228 -13.106054 51.097860 -4.036727 12.173120 1.666979 -0.205500 -2.918700 8.052400 7.830742 -0.686141 8.477272 1.199424 0.646066 -1.271782 2.567908 0.631251 0.677949 -7.545060 -5.226912 -4.029740 6.052392 -6.393654 -1.268040 4.038900 -2.327000 -2.755300 8.305262 -4.008299 3.818946 -103.545747 12.189923 -26.507031 8.784597 -25.925770 -4.214383 1.633192 4.147370 -49.558750 55.296118 6.846878 6.069100 -7.125000 0.000000 0.000000 20.604000 37.023900 -4.266900 -5.722528 4.601967 4.069595 85.822014 -10.881490 -26.378209 -19.299112 33.747645 -9.040624 1.170565 -3.881867 -92.496255 -48.151620 8.178701 -10.015000 7.125000 0.000000 0.000000 -11.808600 -15.745900 -8.342300 
-0.229253 16.996206 3.936497 -170.093071 0.769252 174.813782 6.782027 6.859539 2.605884 -16.237112 -0.061937 -11.353311 6.998730 13.774960 51.707903 2.540167 -2.079159 -2.006113 1.688000 -8.183400 -23.272500 -9.057321 -7.113523 1.412195 38.170611 2.666713 -6.828892 -7.160673 -13.355050 52.086748 -4.406201 12.621927 -1.702966 -0.134300 -2.361900 6.507000 7.729573 -0.732154 9.005890 1.193768 0.661761 -1.263486 2.670646 0.640715 0.536818 -7.528410 -5.268347 -3.934330 6.212511 -6.382508 -1.828070 3.764100 -2.275000 -2.801000 8.533277 -4.096627 3.885954 -105.377600 11.509653 -26.627927 8.823773 -26.266135 -4.260120 1.671058 4.583994 -50.661243 56.588012 8.216204 7.806300 -7.125000 0.000000 0.000000 21.819500 38.943300 -3.451200 -5.901568 4.697979 4.102174 87.022747 -10.863686 -26.044735 -18.933585 33.644696 -8.885227 1.240577 -4.050330 -93.214164 -48.715595 7.776429 -9.818800 7.125000 0.000000 0.000000 -12.128800 -16.129900 -8.476000 
-0.229253 16.817545 3.949325 -170.282293 0.756573 174.590732 6.764499 6.852635 2.583652 -16.299809 0.135155 -11.584597 7.380150 14.026487 52.838372 3.265255 -3.562244 -4.090887 1.543200 -7.841500 -22.233800 -9.010090 -7.116635 1.409373 38.086090 2.606420 -6.896576 -7.513691 -13.573201 52.977525 -4.690216 12.539003 -4.835799 -0.064100 -1.633800 4.494700 7.470200 -0.759186 9.434491 1.185084 0.652423 -1.257499 2.788754 0.632277 0.451916 -7.553377 -5.301913 -3.935904 6.236997 -6.364552 -2.193502 3.781300 -2.215700 -2.991700 8.706813 -4.152109 3.914595 -106.738836 10.794796 -26.977704 9.002344 -26.615149 -4.328794 1.651606 5.004233 -51.959523 58.001567 9.712929 9.882400 -7.125000 0.000000 0.000000 23.319000 41.155800 -2.356100 -6.046065 4.757195 4.116447 88.051724 -10.826216 -26.069662 -18.717522 33.589500 -8.790501 1.292902 -4.192867 -93.657915 -49.269474 7.351722 -9.590800 7.125000 0.000000 0.000000 -12.471100 -16.557600 -8.608200 
-0.228227 16.675211 3.952506 -170.793701 0.668050 174.437770 6.750971 6.830338 2.548953 -16.714068 0.314861 -11.789610 7.711395 14.232690 53.812235 3.908825 -4.915920 -5.538257 1.350400 -7.356700 -20.776400 -8.954287 -7.117984 1.429044 37.716988 2.849719 -6.920328 -7.824557 -13.755790 53.760381 -4.866081 12.080842 -7.452444 -0.031300 -1.142300 3.140500 6.877642 -0.742157 9.726479 1.166035 0.603625 -1.260686 2.923504 0.591812 0.423909 -7.572152 -5.310211 -4.130762 6.241809 -6.310573 -2.420796 3.757200 -2.159000 -3.030800 8.833780 -4.175783 3.889312 -107.582005 10.007437 -27.745700 9.257422 -26.823479 -4.393675 1.589180 5.369758 -53.336608 59.485699 11.155533 12.124400 -7.125000 0.000000 0.000000 25.061900 43.433200 -1.039100 -6.169499 4.782518 4.103988 88.870343 -10.738601 -26.458541 -18.586840 33.503890 -8.726337 1.317199 -4.308941 -93.814079 -49.888868 6.939592 -9.385000 7.125000 0.000000 0.000000 -12.880500 -16.970300 -8.786600 
-0.227508 16.576798 3.955379 -171.575462 0.479726 174.364023 6.734894 6.794640 2.502768 -17.421693 0.477214 -11.988133 7.963016 14.388695 54.571184 4.466032 -6.184475 -6.350015 1.130000 -6.751700 -18.982000 -8.890421 -7.119854 1.453923 37.003113 3.129641 -7.054625 -8.081518 -13.906375 54.417962 -4.992098 11.661260 -9.389647 -0.018700 -0.883300 2.427900 6.138337 -0.113979 9.901961 1.152739 0.377941 -1.278004 3.064874 0.055762 0.391309 -7.580588 -5.272923 -4.397654 6.204475 -6.206543 -2.553602 3.681500 -2.095800 -3.004100 8.871623 -4.169412 3.827781 -107.844266 9.290080 -28.402899 9.568855 -26.986108 -4.464030 1.463557 5.662003 -55.109474 61.121185 12.405971 14.436400 -7.125000 0.000000 0.000000 27.127200 45.611500 0.442400 -6.283564 4.770606 4.073381 89.320181 -10.560765 -27.158873 -18.519857 33.353531 -8.685995 1.315808 -4.382405 -93.801581 -50.609074 6.537950 -9.205800 7.125000 0.000000 0.000000 -13.392000 -17.371700 -9.034100 
-0.228329 16.521589 3.968720 -172.201781 0.251494 174.248444 6.723333 6.771001 2.471273 -17.904898 0.830059 -12.247028 8.123721 14.490170 55.076551 4.896636 -7.291361 -6.453552 0.966000 -6.257700 -17.534100 -8.841149 -7.123280 1.484820 36.423033 3.372725 -7.141825 -8.262892 -14.011326 54.910277 -5.047329 11.315441 -10.545919 -0.018100 -0.867400 2.384100 5.428631 -0.132441 10.123424 1.138497 0.275741 -1.286315 3.192177 -0.002143 0.307927 -7.566378 -5.220588 -4.506082 6.175493 -6.106084 -2.694958 3.605300 -2.040600 -3.025000 8.888281 -4.168339 3.764642 -107.585451 8.664675 -29.064211 9.922255 -27.078829 -4.545726 1.307443 5.851803 -56.971566 62.789457 13.361590 16.646700 -7.125000 0.000000 0.000000 29.380700 47.510600 1.984500 -6.303649 4.753183 4.052611 89.373937 -10.334448 -28.109421 -18.518475 33.119217 -8.663789 1.285318 -4.405410 -93.774095 -51.445990 6.303039 -9.209600 7.125000 0.000000 0.000000 -13.987000 -17.552400 -9.403100 
-0.231613 16.500449 3.976827 -172.554919 -0.009539 174.121152 6.717494 6.765902 2.452536 -18.028032 1.329109 -12.512569 8.195515 14.539710 55.331925 5.293142 -8.478865 -5.914583 0.794400 -5.689100 -15.885000 -8.820067 -7.125676 1.506372 36.167272 3.596518 -7.057326 -8.341499 -14.050407 55.144362 -4.995596 10.895973 -11.035930 -0.020300 -0.919200 2.526600 5.076945 -0.197546 10.242608 1.134120 0.150020 -1.289374 3.221201 -0.065725 0.242550 -7.548616 -5.146889 -4.504056 6.141495 -5.991694 -2.800725 3.554400 -1.978900 -3.079500 8.834842 -4.139652 3.713352 -106.981906 8.219498 -29.785331 10.336069 -27.143294 -4.637463 1.168083 5.905993 -58.599360 64.295354 13.877922 18.427700 -7.125000 0.000000 0.000000 31.500700 48.854000 3.295600 -6.275361 4.721678 4.046512 88.958080 -10.174085 -29.022745 -18.453780 32.785527 -8.625314 1.229384 -4.380873 -93.770313 -52.366916 6.266156 -9.431700 7.125000 0.000000 0.000000 -14.630100 -17.465300 -9.894100 
-0.237052 16.522820 3.974569 -172.882208 -0.325584 174.038195 6.720207 6.768037 2.439238 -18.120524 1.902013 -12.728547 8.165484 14.528088 55.330139 5.563089 -9.488992 -4.897011 0.697100 -5.337000 -14.872300 -8.810756 -7.132128 1.526126 35.934781 3.797075 -6.872499 -8.299987 -14.013264 55.040474 -4.837893 10.389094 -10.892532 -0.023500 -0.990100 2.721600 4.800560 -0.289318 10.197195 1.128802 -0.010765 -1.292924 3.210694 -0.137239 0.204911 -7.535750 -5.066942 -4.426724 6.082566 -5.893642 -2.824252 3.507300 -1.934000 -3.132600 8.722823 -4.099576 3.675962 -106.217450 7.989137 -30.694400 10.821084 -27.230698 -4.748607 1.094220 5.832908 -59.548005 65.385522 13.961620 19.496600 -7.125000 0.000000 0.000000 33.048600 49.503200 4.071100 -6.198808 4.681749 4.052680 88.106550 -10.233626 -29.684048 -18.356796 32.439598 -8.586890 1.167829 -4.305670 -94.128904 -53.267498 6.574689 -10.016400 7.125000 0.000000 0.000000 -15.210300 -16.913400 -10.506900 
-0.244338 16.591473 3.960100 -173.131616 -0.681164 174.000194 6.734044 6.774805 2.433910 -18.151991 2.416613 -12.844533 8.025388 14.451328 55.059877 5.668185 -10.192095 -3.384724 0.665200 -5.215900 -14.525400 -8.819742 -7.142569 1.538986 35.804532 3.989705 -6.504392 -8.127896 -13.885792 54.542840 -4.580456 9.792774 -10.161231 -0.031000 -1.136200 3.123600 4.683604 -0.406527 9.898495 1.123744 -0.201451 -1.294868 3.134221 -0.214090 0.319782 -7.588342 -4.998235 -4.502411 5.885001 -5.818709 -2.523097 3.758800 -1.899500 -3.320800 8.558094 -4.010260 3.617190 -105.160422 7.814835 -31.816278 11.224611 -27.124228 -4.815454 1.109025 5.616254 -59.633416 65.948990 13.559998 19.620900 -7.125000 0.000000 0.000000 33.738000 49.328300 4.016300 -6.094183 4.610760 4.049171 86.983575 -10.550348 -30.080426 -18.226722 32.130595 -8.547722 1.103302 -4.196090 -94.747417 -53.941091 7.238686 -10.933400 7.125000 0.000000 0.000000 -15.573600 -15.906800 -11.133100 
-0.252855 16.701379 3.930237 -173.381597 -1.051839 174.053368 6.757507 6.782837 2.435735 -18.243316 2.811873 -12.833342 7.768984 14.300403 54.477383 5.588417 -10.448484 -1.516433 0.730000 -5.458900 -15.222100 -8.841881 -7.156084 1.547721 35.671202 4.173987 -6.027562 -7.840951 -13.674893 53.674121 -4.237978 9.091297 -8.934444 -0.033900 -1.187700 3.265400 4.620987 -0.535084 9.324202 1.118700 -0.415341 -1.297800 3.045169 -0.296000 0.552767 -7.708820 -4.957672 -4.709828 5.803359 -5.763390 -2.267996 3.758300 -1.889500 -3.109300 8.339977 -3.876047 3.544542 -103.739963 7.700463 -32.948348 11.442028 -26.763560 -4.812298 1.188905 5.270468 -58.924387 65.862252 12.684424 18.627700 -7.125000 0.000000 0.000000 33.350200 48.245900 2.982700 -5.970415 4.516155 4.042048 85.496875 -10.990504 -30.356817 -17.940203 31.677525 -8.436741 1.029197 -4.041241 -95.416731 -54.231059 8.190449 -12.048300 7.125000 0.000000 0.000000 -15.648200 -14.585500 -11.654000 
-0.262296 16.845662 3.886008 -173.534235 -1.452976 174.180029 6.790736 6.796873 2.456257 -18.274073 3.048002 -12.699401 7.404555 14.073914 53.573041 5.389958 -10.397239 0.738284 0.862800 -5.923000 -16.561300 -8.882389 -7.172236 1.555393 35.652014 4.334545 -5.404471 -7.460338 -13.381944 52.470740 -3.798056 8.153080 -7.381994 -0.018100 -0.869600 2.390100 4.705267 -0.690106 8.600649 1.115696 -0.645730 -1.315922 2.893743 -0.376124 0.723814 -7.838997 -4.908709 -4.829759 5.701672 -5.718105 -1.940994 3.762800 -1.896500 -2.874900 8.075036 -3.749405 3.465895 -101.939510 7.786256 -33.906969 11.512826 -26.243387 -4.761943 1.283366 4.820850 -57.756203 65.215458 11.354456 16.579100 -7.125000 0.000000 0.000000 32.062500 46.270500 1.120500 -5.818808 4.431058 4.026010 83.622795 -11.349645 -31.012210 -17.632121 31.071125 -8.295616 0.936855 -3.838616 -95.582164 -54.201191 9.049023 -12.952100 7.125000 0.000000 0.000000 -15.577800 -13.474900 -11.979700 
-0.271224 17.027813 3.840034 -173.706614 -1.859428 174.290362 6.830835 6.818915 2.495474 -18.341835 3.225188 -12.410114 6.943322 13.760842 52.359171 5.092065 -10.066294 3.469803 1.031900 -6.461500 -18.129500 -8.930446 -7.193834 1.571168 35.599689 4.488632 -4.688297 -7.029526 -13.029546 51.055431 -3.328609 7.197547 -5.415066 -0.004400 -0.430000 1.181600 4.763036 -0.847259 7.939189 1.110738 -0.866395 -1.358677 2.730236 -0.445806 0.659300 -7.975329 -4.831613 -4.702042 5.589386 -5.678516 -1.575425 3.765300 -1.924300 -2.670400 7.771234 -3.691790 3.381663 -99.723118 8.163122 -34.581261 11.392861 -25.539319 -4.657787 1.354861 4.308271 -56.341887 64.123388 9.675229 13.752200 -7.125000 0.000000 0.000000 30.213700 43.588300 -1.167300 -5.633518 4.398860 4.007671 81.434842 -11.658332 -32.110440 -17.462932 30.435801 -8.186681 0.839706 -3.591333 -95.199387 -53.891377 9.694636 -13.519900 7.125000 0.000000 0.000000 -15.415000 -12.730500 -12.095300 
